# xmcd CD database file
#
# Track frame offsets:
#	150
#	16430
#	31127
#	42821
#	50806
#	64582
#	84711
#	94359
#	104975
#	131697
#	145860
#	157131
#	169504
#	185744
#	200472
#	212160
#	220189
#	233931
#	254070
#	263606
#	274349
#	300942
#	315106
#	326309
#
# Disc length: 4511 seconds
#
# Revision: 3
# Processed by: cddbd v1.5.2PL0 Copyright (c) Steve Scherf et al.
# Submitted via: CDex 1.70beta2
#
DISCID=63119d18
DTITLE=Blues Breakers - John Mayall With Eric Clapton 1
DYEAR=1966
DGENRE=Blues
TTITLE0=All Your Love
TTITLE1=Hideaway
TTITLE2=Little Girl
TTITLE3=Another Man
TTITLE4=Double Crossing Time
TTITLE5=What'd I Say
TTITLE6=Key To Love
TTITLE7=Parchman Farm
TTITLE8=Have You Heard
TTITLE9=Ramblin' On My Mind
TTITLE10=Steppin' Out
TTITLE11=It Ain't Right
TTITLE12=All Your Love
TTITLE13=Hideaway
TTITLE14=Little Girl
TTITLE15=Another Man
TTITLE16=Double Crossing Time
TTITLE17=What'd I Say
TTITLE18=Key To Love
TTITLE19=Parchman Farm
TTITLE20=Have You Heard
TTITLE21=Ramblin' On My Mind
TTITLE22=Steppin' Out
TTITLE23=It Ain't Right
EXTD=YEAR: 1966
EXTT0=
EXTT1=
EXTT2=
EXTT3=
EXTT4=
EXTT5=
EXTT6=
EXTT7=
EXTT8=
EXTT9=
EXTT10=
EXTT11=
EXTT12=
EXTT13=
EXTT14=
EXTT15=
EXTT16=
EXTT17=
EXTT18=
EXTT19=
EXTT20=
EXTT21=
EXTT22=
EXTT23=
PLAYORDER=
